<?xml version="1.0" standalone="no"?>
<!DOCTYPE svg PUBLIC "-//W3C//DTD SVG 20010904//EN"
 "http://www.w3.org/TR/2001/REC-SVG-20010904/DTD/svg10.dtd">
<svg version="1.0" xmlns="http://www.w3.org/2000/svg"
 width="476.000000pt" height="476.000000pt" viewBox="0 0 476.000000 476.000000"
 preserveAspectRatio="xMidYMid meet">
<metadata>
Created by potrace 1.11, written by Peter Selinger 2001-2013
</metadata>
<g transform="translate(0.000000,476.000000) scale(0.100000,-0.100000)"
fill="#000000" stroke="none">
<path d="M2215 4091 c10 -231 15 -335 20 -481 8 -204 13 -346 20 -485 2 -66 7
-178 10 -250 3 -71 7 -184 10 -250 3 -66 7 -174 10 -240 3 -66 7 -181 11 -255
3 -74 7 -182 9 -240 10 -265 16 -394 18 -397 3 -2 223 -4 343 -3 l61 0 3 83
c1 45 3 107 5 137 2 30 6 132 10 225 3 94 8 206 10 250 2 44 7 150 10 235 3
85 8 193 10 240 2 47 7 157 10 245 4 88 8 201 10 250 2 50 7 146 10 215 3 69
7 184 10 255 7 159 13 322 20 476 l6 116 -316 0 -316 0 6 -126z"/>
<path d="M2115 4120 c-6 -9 1 -791 10 -1070 2 -74 6 -215 9 -312 4 -116 2
-187 -5 -205 -6 -15 -13 -37 -15 -48 -5 -23 -4 -572 1 -745 10 -324 15 -489
21 -737 l7 -273 -107 0 -106 0 1 382 0 381 -24 21 c-14 12 -28 31 -32 43 -5
19 -12 22 -38 18 -30 -4 -77 -9 -187 -21 -81 -8 -249 -32 -280 -39 -8 -2 -18
-4 -21 -4 -4 -1 -12 -14 -19 -31 -7 -16 -23 -36 -35 -44 l-24 -16 0 -322 c1
-178 0 -333 0 -345 -1 -21 -5 -22 -81 -21 l-80 1 0 656 c0 629 -3 802 -17 846
-15 49 -209 265 -238 265 -22 0 -112 -96 -215 -230 l-35 -44 0 -746 0 -745
-75 -3 -75 -3 0 593 0 593 -186 1 -186 1 -1 -231 c0 -127 -1 -394 -1 -593 l-1
-363 -39 0 -38 0 1 -92 1 -93 2376 -1 2376 -1 0 89 c0 49 -3 90 -7 93 -4 2
-23 5 -43 7 -20 1 -38 7 -40 13 -2 5 -3 297 -3 648 1 571 -1 637 -15 637 -8 0
-23 -6 -32 -12 -15 -12 -17 -65 -18 -639 0 -344 -4 -631 -8 -638 -27 -42 -30
49 -30 859 0 492 -4 438 38 450 20 5 42 10 49 10 6 0 13 6 13 13 5 43 4 119 0
126 -4 5 -46 12 -96 15 -49 4 -119 12 -155 18 -96 17 -222 15 -333 -7 l-98
-18 3 -71 3 -71 48 -9 47 -8 1 -42 c2 -206 -2 -1271 -6 -1274 -2 -2 -11 -2
-19 1 -12 5 -14 92 -12 632 1 653 1 665 -39 665 -8 0 -18 -12 -22 -27 -4 -16
-7 -308 -6 -650 l1 -623 -109 0 -109 0 -1 48 c0 26 -2 317 -3 647 -2 330 -4
606 -5 613 -1 15 -154 -64 -278 -144 l-83 -54 0 -232 c-1 -235 -7 -857 -9
-870 -1 -5 -12 -8 -25 -8 l-23 0 0 569 c0 313 2 573 6 579 7 12 470 282 482
282 5 0 9 3 10 8 5 40 3 967 -3 982 -4 11 -12 20 -18 20 -5 0 -76 32 -158 71
-81 39 -192 91 -246 117 -55 26 -156 74 -225 108 -76 37 -129 57 -133 51 -10
-16 -7 -1443 3 -1512 5 -33 12 -76 15 -95 7 -37 12 -1026 6 -1123 l-4 -58 -81
3 c-80 3 -82 3 -80 28 0 14 4 147 8 295 4 149 9 313 10 365 2 52 6 312 10 576
7 423 6 485 -8 512 -16 33 -17 227 -2 742 19 679 20 846 5 870 -8 13 -11 13
-24 0 -11 -12 -16 -57 -20 -205 -4 -104 -8 -233 -11 -285 -2 -52 -7 -158 -10
-235 -3 -77 -8 -180 -10 -230 -2 -49 -7 -160 -10 -245 -3 -85 -7 -200 -10
-255 -10 -246 -17 -385 -20 -455 -2 -41 -7 -149 -10 -240 -4 -91 -8 -192 -10
-225 -2 -33 -5 -118 -6 -188 l-2 -128 -258 2 c-143 1 -260 4 -260 8 -3 10 -7
114 -14 351 -4 124 -8 250 -10 280 -2 30 -6 125 -10 210 -4 85 -8 187 -10 225
-3 67 -9 186 -20 430 -3 61 -8 153 -10 205 -5 92 -12 265 -20 460 -2 52 -7
185 -10 295 -4 110 -11 208 -16 218 -11 19 -25 22 -34 7z"/>
<path d="M1314 3212 l-42 -3 1 -260 0 -261 31 6 c17 3 58 8 91 11 33 3 74 8
92 10 17 3 72 9 123 15 50 6 108 12 128 15 20 2 62 7 92 10 107 11 95 -18 98
236 l2 225 -287 -1 c-159 0 -307 -1 -329 -3z"/>
<path d="M1777 2704 c-1 -1 -63 -9 -137 -18 -166 -20 -209 -26 -235 -31 -11
-2 -30 -4 -42 -4 -15 -1 -24 -11 -32 -33 -6 -18 -22 -41 -34 -50 -21 -16 -22
-22 -23 -232 l0 -216 50 5 c109 12 132 15 166 20 19 2 58 7 85 10 28 3 64 8
80 10 17 3 68 9 115 15 47 6 102 13 123 16 l37 6 0 220 c0 208 -1 220 -19 225
-11 3 -25 18 -32 34 -11 27 -16 30 -56 28 -24 -2 -44 -4 -46 -5z"/>
<path d="M1725 2130 c-71 -10 -150 -20 -175 -23 -69 -8 -153 -20 -170 -23 -8
-1 -23 -3 -32 -3 -10 -1 -19 -13 -23 -31 -4 -16 -16 -37 -28 -45 -21 -15 -22
-21 -22 -236 l0 -220 50 6 c27 3 67 8 88 11 42 5 94 11 152 18 22 3 63 8 90
11 28 3 61 7 75 9 14 3 52 7 85 11 33 3 72 8 88 11 l27 6 0 218 0 219 -30 21
c-16 12 -30 30 -30 41 0 10 -3 19 -7 18 -5 -1 -66 -9 -138 -19z"/>
</g>
</svg>
